<svg xmlns="http://www.w3.org/2000/svg" xmlns:xlink="http://www.w3.org/1999/xlink" preserveAspectRatio="xMidYMid" width="33" height="30" viewBox="7.5 5 33 30">
  <defs>
    <style>
      .cls-1 {
        fill: #333;
        fill-rule: evenodd;
      }
    </style>
  </defs>
  <path d="M35.669,31.311 L30.390,25.654 C29.926,25.158 29.085,25.205 28.242,25.675 L25.939,23.209 C28.939,19.009 28.656,12.980 25.069,9.137 C21.164,4.956 14.834,4.956 10.928,9.137 C7.025,13.322 7.025,20.103 10.928,24.287 C14.516,28.130 20.144,28.433 24.064,25.218 L26.367,27.683 C25.928,28.588 25.883,29.488 26.346,29.986 L31.626,35.642 C32.293,36.356 33.741,35.964 34.855,34.767 C35.970,33.574 36.337,32.025 35.669,31.311 ZM12.415,22.695 C9.333,19.390 9.333,14.033 12.415,10.731 C15.501,7.425 20.497,7.428 23.583,10.731 C26.666,14.033 26.666,19.388 23.583,22.695 C20.497,25.998 15.498,25.998 12.415,22.695 Z" class="cls-1"/>
</svg>
